<?xml version="1.0" encoding="UTF-8" standalone="no"?>
<svg
   xmlns:osb="http://www.openswatchbook.org/uri/2009/osb"
   xmlns:dc="http://purl.org/dc/elements/1.1/"
   xmlns:cc="http://creativecommons.org/ns#"
   xmlns:rdf="http://www.w3.org/1999/02/22-rdf-syntax-ns#"
   xmlns:svg="http://www.w3.org/2000/svg"
   xmlns="http://www.w3.org/2000/svg"
   xmlns:xlink="http://www.w3.org/1999/xlink"
   xmlns:sodipodi="http://sodipodi.sourceforge.net/DTD/sodipodi-0.dtd"
   xmlns:inkscape="http://www.inkscape.org/namespaces/inkscape"
   width="58.760063mm"
   height="17.236412mm"
   viewBox="0 0 58.760062 17.236412"
   version="1.1"
   id="svg8"
   inkscape:version="1.0 (4035a4fb49, 2020-05-01)"
   sodipodi:docname="image_background.svg">
  <defs
     id="defs2">
    <linearGradient
       id="linearGradient3017"
       inkscape:collect="always">
      <stop
         id="stop3013"
         offset="0"
         style="stop-color:#000000;stop-opacity:1;" />
      <stop
         id="stop3015"
         offset="1"
         style="stop-color:#000000;stop-opacity:0;" />
    </linearGradient>
    <linearGradient
       id="linearGradient3009"
       inkscape:collect="always">
      <stop
         id="stop3005"
         offset="0"
         style="stop-color:#ff8080;stop-opacity:1;" />
      <stop
         id="stop3007"
         offset="1"
         style="stop-color:#ff8080;stop-opacity:0;" />
    </linearGradient>
    <linearGradient
       osb:paint="gradient"
       id="linearGradient2997"
       inkscape:collect="always">
      <stop
         id="stop2993"
         offset="0"
         style="stop-color:#c7399e;stop-opacity:1;" />
      <stop
         id="stop2995"
         offset="1"
         style="stop-color:#8cddb9;stop-opacity:0;" />
    </linearGradient>
    <clipPath
       id="clipPath41"
       clipPathUnits="userSpaceOnUse">
      <g
         style="fill:#d483ae;fill-opacity:0.823293"
         id="use43"
         inkscape:label="Clip">
        <path
           style="fill:#d483ae;fill-opacity:0.823293;stroke-width:0.264583"
           d="m 104.5991,170.57979 c 0.40218,-0.0608 0.99749,-0.0592 1.32292,0.004 0.32542,0.0628 -0.004,0.11255 -0.73125,0.11057 -0.7276,-0.002 -0.99385,-0.0534 -0.59167,-0.11419 z m 7.67292,0 c 0.40218,-0.0608 0.99749,-0.0592 1.32291,0.004 0.32542,0.0628 -0.004,0.11255 -0.73124,0.11057 -0.7276,-0.002 -0.99386,-0.0534 -0.59167,-0.11419 z m -11.76106,-0.25547 c 0.19099,-0.0764 0.4192,-0.067 0.50712,0.0209 0.0879,0.0879 -0.0684,0.15045 -0.34727,0.13896 -0.30823,-0.0127 -0.37092,-0.0754 -0.15985,-0.15985 z m 18.52083,-0.26458 c 0.19099,-0.0764 0.4192,-0.067 0.50712,0.0209 0.0879,0.0879 -0.0683,0.15045 -0.34727,0.13896 -0.30822,-0.0127 -0.37092,-0.0754 -0.15985,-0.15985 z m -22.754167,-0.26458 c 0.190995,-0.0764 0.419201,-0.067 0.507119,0.0209 0.08792,0.0879 -0.06835,0.15046 -0.347266,0.13897 -0.308226,-0.0127 -0.370919,-0.0754 -0.159853,-0.15985 z m 24.341667,0 c 0.19099,-0.0764 0.4192,-0.067 0.50712,0.0209 0.0879,0.0879 -0.0684,0.15046 -0.34727,0.13897 -0.30822,-0.0127 -0.37092,-0.0754 -0.15985,-0.15985 z m -62.441666,-5.02709 c 0.190995,-0.0764 0.419198,-0.067 0.507119,0.0209 0.08792,0.0879 -0.06835,0.15045 -0.347265,0.13896 -0.308227,-0.0127 -0.37092,-0.0754 -0.159854,-0.15985 z m 1.555594,-0.44839 c 0.879316,-0.40683 1.52391,-0.5327 2.198182,-0.42924 0.218281,0.0335 -0.01984,0.14948 -0.529166,0.25776 -0.509323,0.10828 -1.28323,0.27907 -1.719792,0.37954 l -0.79375,0.18268 z m 2.470372,-0.62394 c -0.49303,-0.19374 2.216452,-1.18976 3.255672,-1.1968 0.5115,-0.003 0.637611,-0.0762 0.396875,-0.22876 -0.283028,-0.17941 -0.274318,-0.22472 0.04401,-0.22896 0.218281,-0.003 1.099809,-0.29161 1.958951,-0.64157 0.859142,-0.34997 1.741877,-0.56731 1.961632,-0.48299 0.229454,0.088 0.329869,0.0406 0.235868,-0.11153 -0.09219,-0.14917 0.611137,-0.53459 1.610243,-0.88242 0.975662,-0.33966 3.071119,-1.13161 4.656569,-1.75989 1.585452,-0.62828 3.133264,-1.10222 3.439583,-1.0532 0.306321,0.049 0.385395,0.0339 0.175723,-0.0337 -0.238887,-0.077 -0.04131,-0.26723 0.529167,-0.50956 2.557547,-1.08642 8.6337,-3.50595 8.98018,-3.57592 0.218281,-0.0441 0.456406,-0.14588 0.529167,-0.22623 0.376412,-0.41563 2.131949,-1.02582 2.555549,-0.88825 0.357584,0.11613 0.393242,0.091 0.134064,-0.0946 -0.275973,-0.19761 -0.232629,-0.28433 0.198438,-0.39706 0.791601,-0.20701 0.68299,-0.53181 -0.366906,-1.09721 -0.50514,-0.27204 -0.859755,-0.58957 -0.788032,-0.70562 0.07172,-0.11605 -0.08053,-0.19791 -0.338333,-0.1819 -0.428125,0.0266 -4.834364,-2.59961 -4.834364,-2.88134 0,-0.0668 0.137459,-0.0365 0.305464,0.0674 0.191704,0.11848 0.23354,0.0724 0.11234,-0.1237 -0.106217,-0.17186 -0.332973,-0.2824 -0.503902,-0.24563 -0.473342,0.10181 -2.023737,-0.90815 -1.843008,-1.20057 0.08733,-0.14131 0.0412,-0.18425 -0.102518,-0.0954 -0.143716,0.0888 -1.144376,-0.55584 -2.223693,-1.43258 -2.852597,-2.31721 -3.988461,-3.14494 -4.317193,-3.14604 -0.654471,-0.002 -4.114382,-1.51294 -3.929938,-1.71599 0.109627,-0.12069 0.0032,-0.14937 -0.236461,-0.0637 -0.382635,0.1367 -2.247699,-0.64792 -2.606923,-1.09673 -0.07276,-0.0909 -0.331603,-0.19818 -0.575202,-0.2384 -0.775412,-0.12803 -5.083027,-2.61376 -5.894906,-3.4017 -0.429863,-0.41718 -0.673989,-0.57992 -0.542507,-0.36163 0.239319,0.3973 -1.707689,-0.95469 -2.012799,-1.39768 -0.08903,-0.12926 -0.267626,-0.23077 -0.396875,-0.22559 -0.474128,0.019 -4.345403,-3.43921 -4.169172,-3.72436 0.09871,-0.15971 0.06128,-0.21734 -0.08318,-0.12806 -0.269566,0.1666 -2.627244,-1.85854 -2.413066,-2.07272 0.06541,-0.0654 0.37815,0.12258 0.694981,0.41776 0.316833,0.29517 0.576058,0.45793 0.576058,0.36168 0,-0.0962 0.177285,-0.0279 0.393962,0.15196 0.216678,0.17983 0.317344,0.45093 0.223703,0.60245 -0.09538,0.15433 -0.04322,0.19697 0.118589,0.097 0.357743,-0.2211 2.594726,1.0231 2.508067,1.39498 -0.03474,0.14908 0.132993,0.19503 0.374132,0.10249 0.313354,-0.12024 0.376936,-0.0704 0.224581,0.17614 -0.143645,0.23243 -0.0934,0.30051 0.155032,0.21006 0.202158,-0.0736 1.022403,0.20352 1.822768,0.61582 3.016173,1.55376 8.690937,3.94726 9.358574,3.94726 0.235537,0 0.207594,-0.73135 -0.03201,-0.83785 -0.529294,-0.23524 -1.908186,-2.14208 -1.749343,-2.41913 0.09929,-0.17319 0.08352,-0.22705 -0.03504,-0.11968 -0.207722,0.18809 -2.438368,-2.63705 -2.578672,-3.26592 -0.03779,-0.16939 -0.337785,-0.60823 -0.666652,-0.97521 -0.328866,-0.36698 -0.544396,-0.72077 -0.478954,-0.78622 0.06544,-0.0654 -0.09106,-0.34444 -0.347776,-0.61999 -0.667303,-0.71627 -3.787312,-7.05632 -3.830669,-7.78416 -0.01998,-0.33541 -0.0884,-0.55786 -0.15204,-0.49433 -0.396899,0.39621 -2.727632,-7.93072 -2.48176,-8.86649 0.104188,-0.39653 0.06705,-0.57473 -0.09848,-0.47243 -0.163336,0.10094 -0.45983,-1.08132 -0.769284,-3.06748 -0.579562,-3.7198 -0.643493,-11.33298 -0.1249,-14.873401 0.676974,-4.62166 1.146226,-7.222983 1.606976,-8.908357 0.265327,-0.970534 0.433401,-1.813621 0.373497,-1.873526 -0.05991,-0.0599 1.347502,0.158383 3.127568,0.485077 1.780066,0.326697 3.346,0.526309 3.479855,0.443582 0.133853,-0.08273 0.164108,-0.02217 0.06723,0.134588 -0.230746,0.373356 -0.698209,2.788044 -0.831414,4.294677 -0.356205,4.028946 -0.664104,10.186652 -0.545811,10.915701 0.07659,0.472041 0.200393,1.989352 0.275108,3.3718 0.208992,3.866839 0.442177,5.555859 0.767652,5.560299 0.213778,0.003 0.212108,0.0583 -0.006,0.19844 -0.311711,0.20028 -0.248864,0.6437 0.815065,5.75064 0.242533,1.16416 0.67533,2.80873 0.961774,3.65459 0.286445,0.84586 0.45127,1.65045 0.366276,1.78797 -0.08499,0.13752 0.03165,0.43622 0.259212,0.66378 0.22756,0.22756 0.413745,0.58545 0.413745,0.79531 0,0.20986 0.11508,0.58831 0.255735,0.841 0.140655,0.25269 0.573995,1.29287 0.962975,2.31151 0.815155,2.13469 3.178998,6.97328 4.186163,8.56873 0.37795,0.59871 0.59639,1.09039 0.485424,1.09262 -0.110964,0.002 -0.07696,0.0915 0.07558,0.19843 0.445804,0.31248 1.499341,1.91379 1.262039,1.91823 -0.11905,0.002 -0.09671,0.0915 0.04964,0.19844 0.637172,0.46548 1.731007,2.20871 1.559766,2.48578 -0.113879,0.18427 -0.0713,0.23189 0.108162,0.12098 0.174389,-0.10778 0.576257,0.26105 0.97822,0.8978 0.375229,0.5944 0.855059,1.14705 1.066292,1.22811 0.21123,0.0811 0.315232,0.25873 0.231116,0.39484 -0.08788,0.1422 0.114572,0.18032 0.475943,0.0896 0.345887,-0.0868 1.516724,0.034 2.601857,0.26859 7.431042,1.6061 19.245621,2.15277 28.599621,1.32332 5.03608,-0.44657 7.82818,-0.81351 8.72989,-1.14728 0.34474,-0.12761 0.7922,-0.17414 0.99436,-0.10339 0.20215,0.0707 0.29688,0.0143 0.2105,-0.1255 -0.16011,-0.25905 3.64851,-2.53984 4.25058,-2.54546 0.1819,-0.002 0.2743,-0.0595 0.20532,-0.1285 -0.069,-0.069 0.43704,-0.4795 1.12448,-0.91227 0.68743,-0.43277 1.29353,-0.82678 1.34689,-0.87559 0.18665,-0.17072 1.07563,-4.22298 1.08458,-4.94385 0.005,-0.40018 0.14083,-0.7276 0.30193,-0.7276 0.16109,0 0.22972,-0.16462 0.15252,-0.36581 -0.0772,-0.20119 0.0984,-2.43361 0.39029,-4.96093 0.43872,-3.79895 0.51453,-5.85233 0.43749,-11.8509 -0.066,-5.13874 -0.18152,-7.28521 -0.39597,-7.35669 -0.21201,-0.0707 -0.23011,-0.35438 -0.0604,-0.94618 0.15663,-0.54613 0.14862,-0.8765 -0.0226,-0.93358 -0.14577,-0.0486 -0.26686,-0.58444 -0.26909,-1.190776 -0.004,-1.19847 -0.1784,-1.602923 -0.7897,-1.835621 -0.3306,-0.125846 -0.32428,-0.154564 0.0378,-0.171963 0.55674,-0.02675 0.81924,-0.70461 0.49882,-1.288119 -0.13668,-0.248909 -0.55549,-1.821781 -0.93068,-3.49527 -0.3752,-1.67349 -1.18366,-4.590521 -1.7966,-6.482292 -0.61294,-1.891771 -1.11493,-3.558646 -1.11555,-3.704167 -5.3e-4,-0.145521 -0.0653,-0.324115 -0.14385,-0.396875 -0.0785,-0.07276 -0.4837,-0.906198 -0.90044,-1.852084 -0.41673,-0.945885 -1.20782,-2.644679 -1.75797,-3.775096 -0.55015,-1.130416 -0.89926,-1.992879 -0.77581,-1.916581 0.12345,0.0763 0.26439,0.04388 0.3132,-0.07205 0.0914,-0.217117 2.80127,-1.316789 3.85906,-1.566027 0.32742,-0.07715 0.59531,-0.245448 0.59531,-0.374007 0,-0.128555 0.17497,-0.233738 0.38883,-0.233738 0.21385,0 0.7794,-0.214127 1.25677,-0.475834 0.47737,-0.26171 1.05722,-0.435251 1.28856,-0.385644 0.54146,0.116107 1.6554,2.086642 1.40689,2.488745 -0.11125,0.180009 -0.0742,0.235366 0.0896,0.134083 0.3264,-0.201726 1.36073,1.652839 1.19422,2.141254 -0.062,0.181902 -0.007,0.33073 0.12297,0.33073 0.25861,0 1.21949,2.025084 1.21949,2.570104 0,0.187172 0.0881,0.340312 0.19587,0.340312 0.19172,0 2.36467,6.464663 2.53102,7.529931 0.0464,0.296924 0.32853,1.492361 0.62704,2.656528 0.44443,1.733262 0.69368,3.317066 0.78071,4.960938 0.006,0.109141 0.21886,0.20026 0.47352,0.202488 0.33296,0.0029 0.3695,0.06343 0.13009,0.215416 -0.26647,0.169169 -0.25327,0.966311 0.0661,3.99296 0.71409,6.766445 0.44376,14.081875 -0.92445,25.017095 -0.14518,1.16035 -0.26396,2.14261 -0.26396,2.18281 0,0.30205 0.78227,-0.16722 2.81036,-1.68587 1.29196,-0.96743 2.4926,-1.76118 2.6681,-1.76389 0.1755,-0.003 0.26596,-0.0909 0.20102,-0.19598 -0.0649,-0.10508 0.28717,-0.50015 0.78248,-0.87794 0.49531,-0.37779 1.05977,-0.83753 1.25434,-1.02163 1.38665,-1.31199 2.41221,-2.03981 2.65917,-1.88718 0.16072,0.0993 0.21503,0.0583 0.12202,-0.0922 -0.0922,-0.14915 0.4252,-0.81725 1.14974,-1.48467 0.72454,-0.66742 1.31735,-1.14996 1.31735,-1.07231 0,0.0776 0.30852,-0.22547 0.68558,-0.67359 0.38097,-0.45277 0.82181,-0.73682 0.99218,-0.63934 0.16865,0.0965 0.21623,0.0759 0.10576,-0.0458 -0.24648,-0.27148 0.84998,-1.48997 1.16536,-1.29505 0.12436,0.0769 0.22613,-0.0908 0.22613,-0.37263 0,-0.60613 0.60781,-1.18531 0.95037,-0.90561 0.13214,0.10787 0.15257,0.0886 0.0454,-0.0428 -0.20839,-0.25556 1.91224,-2.71612 2.24534,-2.60525 0.10915,0.0363 0.16868,-0.0258 0.1323,-0.13809 -0.0802,-0.24743 1.41629,-2.32385 1.78013,-2.47003 0.14233,-0.0572 0.28497,-0.2824 0.31697,-0.50049 0.032,-0.21809 0.33228,-0.61847 0.66727,-0.88972 0.33498,-0.27126 0.5793,-0.5393 0.54293,-0.59566 -0.17842,-0.27639 -0.001,-0.60817 0.69713,-1.30673 0.41982,-0.41981 0.71318,-0.89389 0.65193,-1.05351 -0.0613,-0.15962 0.18489,-0.60989 0.54699,-1.0006 0.3621,-0.3907 0.60642,-0.71038 0.54295,-0.71038 -0.25637,0 1.03779,-2.172936 1.3701,-2.300454 0.19694,-0.07557 0.35807,-0.250756 0.35807,-0.389298 0,-0.138538 -0.11411,-0.181364 -0.25358,-0.09517 -0.13948,0.0862 -0.005,-0.442558 0.29985,-1.175009 0.3044,-0.732454 0.66656,-1.331736 0.8048,-1.331736 0.13825,0 0.20157,-0.148828 0.14071,-0.330729 -0.0609,-0.181901 0.10073,-0.93269 0.35909,-1.668423 2.12737,-6.058061 2.11529,-14.649387 -0.0285,-20.29147 -0.27994,-0.736741 -0.45311,-1.42992 -0.38483,-1.540397 0.0683,-0.110476 0.0337,-0.240802 -0.0768,-0.289613 -0.1105,-0.04881 -0.77401,-1.235487 -1.47444,-2.637065 -0.70045,-1.401575 -1.90862,-3.425637 -2.68481,-4.497917 -0.77621,-1.072277 -1.34452,-2.068658 -1.2629,-2.214179 0.0816,-0.14552 0.0585,-0.183917 -0.0513,-0.08532 -0.1098,0.09859 -0.57516,-0.258594 -1.03414,-0.79375 -0.45898,-0.535157 -0.98607,-1.069626 -1.17127,-1.18771 -0.18522,-0.118083 -0.29088,-0.296677 -0.23481,-0.396875 0.0561,-0.100198 -0.41044,-0.598895 -1.03669,-1.108218 -0.62625,-0.509323 -1.14587,-1.009637 -1.15472,-1.111811 -0.0155,-0.179406 1.30418,0.217162 3.60024,1.08186 0.60652,0.228421 1.03348,0.527429 0.94878,0.664467 -0.0868,0.140531 0.0411,0.174308 0.29342,0.07747 0.65135,-0.249944 9.42898,3.324167 9.42898,3.839332 0,0.133326 0.0987,0.181395 0.21938,0.106825 0.50529,-0.312285 7.28887,3.69738 7.01232,4.144865 -0.10684,0.172865 -0.0173,0.222327 0.2304,0.127275 0.23942,-0.09187 0.74726,0.156993 1.24145,0.608365 0.45996,0.42011 0.92225,0.737729 1.02731,0.705823 0.10506,-0.03191 0.30756,0.207595 0.45,0.532228 0.14245,0.324633 0.42718,0.65478 0.63274,0.733661 0.30897,0.118562 0.31603,0.06212 0.0407,-0.32566 -0.18317,-0.257993 0.23829,0.126235 0.93657,0.853839 0.69828,0.727605 1.16802,1.144323 1.04387,0.926042 -0.14458,-0.254204 -0.0214,-0.217715 0.34268,0.101508 0.31262,0.274108 0.49259,0.631295 0.39993,0.79375 -0.0927,0.162451 -0.0697,0.205811 0.0509,0.09635 0.33716,-0.305845 1.17454,0.588663 0.99327,1.061027 -0.10526,0.274336 -0.0543,0.350448 0.15014,0.22411 0.18762,-0.115959 0.30954,-0.02269 0.30954,0.236794 0,0.235458 0.10557,0.362857 0.23461,0.283112 0.12903,-0.07975 0.38173,0.03229 0.56156,0.248968 0.24472,0.294875 0.24834,0.393962 0.0144,0.393962 -0.17193,0 -0.23781,0.121004 -0.14641,0.268898 0.0914,0.147894 0.25809,0.212101 0.37041,0.142682 0.47971,-0.296476 3.07443,4.397658 2.81071,5.08489 -0.0834,0.217236 -0.0178,0.279371 0.1715,0.162409 0.20656,-0.127661 0.2497,-0.04138 0.13229,0.264583 -0.0958,0.249759 -0.0653,0.386718 0.0678,0.304425 0.29007,-0.179274 0.91716,2.636806 0.70834,3.180969 -0.0804,0.209399 -0.0308,0.380727 0.11018,0.380727 0.14097,0 0.25538,0.803672 0.25428,1.785938 -0.003,2.773929 -0.83894,7.375478 -1.28916,7.097226 -0.11448,-0.07075 -0.20814,0.203388 -0.20814,0.609192 0,0.741802 -1.7376,4.591905 -2.91485,6.458542 -0.3701,0.58686 -0.75451,0.92616 -0.92787,0.81902 -0.17808,-0.11006 -0.22213,-0.0634 -0.11058,0.11706 0.2327,0.37652 -0.25461,1.31953 -1.08357,2.09688 -0.34916,0.32742 -0.56153,0.59531 -0.47192,0.59531 0.26109,0 -2.98423,3.88169 -3.74686,4.48158 -0.38142,0.30003 -0.58814,0.5477 -0.45938,0.55038 0.12877,0.003 -0.88577,1.06981 -2.25452,2.37138 -1.36876,1.30156 -2.60754,2.293 -2.75286,2.20319 -0.14532,-0.0898 -0.1891,-0.0418 -0.0973,0.10681 0.21206,0.34312 -0.71477,1.20358 -1.00896,0.93671 -0.12066,-0.10945 -0.14334,-0.0657 -0.0504,0.0972 0.19858,0.34807 -2.83344,2.81944 -3.11438,2.5385 -0.10387,-0.10388 -0.14918,-0.0518 -0.10067,0.11565 0.1727,0.5963 -9.86517,7.94057 -10.4006,7.60965 -0.18351,-0.11342 -0.23773,-0.0761 -0.13377,0.0921 0.22603,0.36573 -1.57285,1.48419 -1.9812,1.23182 -0.18238,-0.11272 -0.23984,-0.0778 -0.13939,0.0847 0.20044,0.32431 -1.0505,1.21931 -1.40125,1.00254 -0.13135,-0.0812 -0.32498,-0.008 -0.43028,0.16218 -0.12696,0.20543 -0.0663,0.24484 0.18016,0.11699 0.20438,-0.10604 0.1369,-0.003 -0.14997,0.22954 -0.28686,0.23228 -0.67239,0.36446 -0.85672,0.29372 -0.18433,-0.0707 -0.30681,0.002 -0.27217,0.16047 0.0877,0.40265 -2.74156,2.04639 -3.21176,1.86596 -0.22857,-0.0877 -0.31379,-0.0338 -0.21059,0.13317 0.0957,0.15489 -0.21068,0.47452 -0.6842,0.71374 -0.92958,0.46961 -1.50608,0.8106 -2.6576,1.57194 -0.40919,0.27053 -0.80932,0.42653 -0.8892,0.34666 -0.0799,-0.0799 -0.36545,0.0599 -0.63462,0.31072 -0.6337,0.59039 -9.63305,5.15664 -10.1629,5.15664 -0.22213,0 -0.40387,0.0774 -0.40387,0.17192 0,0.33041 -4.37143,2.22059 -5.02708,2.17368 -0.51677,-0.037 -0.57465,0.009 -0.26459,0.2106 0.25211,0.16384 0.2791,0.25939 0.074,0.26197 -0.17759,0.002 -0.9515,0.28438 -1.71979,0.627 -0.7683,0.34263 -1.5755,0.69123 -1.79378,0.77467 -0.21828,0.0834 -1.40891,0.58331 -2.64583,1.11081 -2.11075,0.90014 -5.02089,2.05188 -8.06979,3.19375 -0.72761,0.2725 -1.47175,0.46499 -1.65365,0.42775 -0.1819,-0.0372 -0.33073,0.0366 -0.33073,0.16408 0,0.12748 -0.38695,0.35833 -0.85989,0.51298 -0.47295,0.15466 -1.69334,0.59592 -2.71198,0.98059 -3.7046,1.39894 -6.31072,2.24033 -6.52637,2.10706 -0.12128,-0.075 -0.22051,-0.002 -0.22051,0.16174 0,0.1869 -0.22198,0.22979 -0.59531,0.11504 -0.32742,-0.10065 -0.504,-0.0868 -0.39239,0.0307 0.23766,0.25034 -6.372163,2.55901 -6.716777,2.34603 -0.128159,-0.0792 -0.233016,-0.01 -0.233016,0.15401 0,0.18348 -0.216128,0.22944 -0.562301,0.11956 -0.378391,-0.12009 -0.503086,-0.0827 -0.381259,0.11447 0.164439,0.26606 -0.343747,0.40139 -1.368697,0.36448 -0.180335,-0.006 -0.273529,0.0761 -0.2071,0.18362 0.182197,0.2948 -1.758577,0.8047 -2.510798,0.65966 -0.362114,-0.0698 -0.492136,-0.0504 -0.288941,0.0432 0.457671,0.21082 -3.129031,1.41172 -3.637293,1.21784 -0.196588,-0.075 -0.434846,-0.0111 -0.529458,0.142 -0.251351,0.40669 -7.408119,2.5051 -8.565282,2.5114 -0.542028,0.003 -0.932812,0.0906 -0.868413,0.19481 0.165733,0.26816 -3.553208,1.31574 -4.026362,1.13417 -0.214958,-0.0825 -0.468114,-0.0318 -0.562568,0.11258 -0.28181,0.43083 -8.564607,2.46687 -9.275088,2.27995 -0.445767,-0.11727 -0.579929,-0.0757 -0.447405,0.13876 0.201295,0.3257 0.0055,0.36048 -0.628094,0.11152 z m 33.329892,-13.32188 c 0,-0.12381 0.198126,-0.14908 0.440278,-0.0562 0.321746,0.12347 0.381293,0.0735 0.221181,-0.18555 -0.161444,-0.26122 -0.09962,-0.30867 0.234921,-0.18029 0.249711,0.0958 0.392038,0.0739 0.316282,-0.0486 -0.211161,-0.34167 1.156621,-0.8661 1.794304,-0.68796 0.377153,0.10535 0.451549,0.0788 0.223838,-0.08 -0.2447,-0.17059 -0.02043,-0.37001 0.79375,-0.70575 0.624154,-0.2574 1.240574,-0.44568 1.369824,-0.41842 0.12925,0.0273 0.30784,-0.0653 0.39688,-0.20564 0.2538,-0.40013 4.87716,-2.5554 5.33056,-2.48494 0.24254,0.0377 0.42246,-0.15288 0.44657,-0.47305 0.0373,-0.49465 -0.11712,-0.53701 -1.99369,-0.54711 -6.361899,-0.0342 -11.564708,-0.27344 -13.543447,-0.62273 -4.895326,-0.86413 -5.395963,-0.93773 -5.521873,-0.81181 -0.07177,0.0718 0.25041,0.52349 0.715965,1.00382 0.465553,0.48033 0.755073,0.97389 0.643372,1.09679 -0.1117,0.1229 -0.07157,0.14851 0.08918,0.0569 0.365315,-0.20819 1.505707,0.96623 1.231506,1.26824 -0.110472,0.12168 -0.05913,0.13997 0.114099,0.0406 0.173225,-0.0993 0.530412,0.0372 0.79375,0.30329 0.263334,0.26612 1.220327,1.11779 2.126644,1.89259 0.906319,0.7748 1.572532,1.53059 1.480473,1.67955 -0.09606,0.15543 -0.03723,0.19038 0.138086,0.082 0.168005,-0.10383 0.305464,-0.0878 0.305464,0.0356 0,0.12339 0.416719,0.23545 0.926042,0.24902 0.509323,0.0136 0.926041,-0.0766 0.926041,-0.20043 z M 65.299326,131.98063 c -0.08792,-0.0879 -0.316124,-0.0973 -0.507119,-0.0209 -0.211066,0.0845 -0.148373,0.14716 0.159854,0.15985 0.278913,0.0115 0.435184,-0.0511 0.347265,-0.13896 z M 175.4156,65.919774 c -0.0606,-0.04118 -0.34837,-0.249537 -0.63941,-0.463021 -0.48948,-0.359042 -0.50194,-0.353428 -0.16604,0.07487 0.19972,0.254662 0.48745,0.463021 0.63941,0.463021 0.15195,0 0.22667,-0.03369 0.16604,-0.07487 z M 71.720983,163.0436 c 0,-0.1163 0.565547,-0.20205 1.256771,-0.19056 1.383355,0.023 1.271442,0.15144 -0.264583,0.30368 -0.545703,0.0541 -0.992188,0.003 -0.992188,-0.11312 z m 4.699439,-0.39858 c 0.329118,-0.0633 0.805368,-0.0609 1.058334,0.005 0.252965,0.0662 -0.01633,0.11801 -0.598398,0.11507 -0.582083,-0.003 -0.789054,-0.0571 -0.459936,-0.12041 z m 9.009285,-0.78736 c 0.190994,-0.0764 0.4192,-0.067 0.507119,0.0209 0.08792,0.0879 -0.06835,0.15046 -0.347266,0.13897 -0.308226,-0.0127 -0.370919,-0.0754 -0.159853,-0.15985 z m 1.852083,-0.26459 c 0.190995,-0.0764 0.419201,-0.067 0.507119,0.0209 0.08792,0.0879 -0.06835,0.15045 -0.347266,0.13896 -0.308226,-0.0127 -0.370919,-0.0754 -0.159853,-0.15985 z m 1.852083,-0.26458 c 0.190995,-0.0764 0.419201,-0.067 0.507119,0.0209 0.08792,0.0879 -0.06835,0.15045 -0.347265,0.13896 -0.308227,-0.0127 -0.37092,-0.0754 -0.159854,-0.15985 z m 62.491277,-4.68166 c 0,-0.0549 0.20836,-0.2633 0.46302,-0.46302 0.41964,-0.3291 0.429,-0.31975 0.0999,0.0999 -0.34564,0.44073 -0.56291,0.58089 -0.56291,0.36312 z m 1.32291,-1.05833 c 0,-0.0549 0.20836,-0.2633 0.46302,-0.46302 0.41965,-0.32911 0.42901,-0.31975 0.0999,0.0999 -0.34564,0.44073 -0.56292,0.58088 -0.56292,0.36312 z m 1.5875,-1.32292 c 0,-0.0549 0.20836,-0.2633 0.46302,-0.46302 0.41965,-0.3291 0.42901,-0.31975 0.0999,0.0999 -0.34564,0.44073 -0.56292,0.58089 -0.56292,0.36312 z m 2.11667,-1.83497 c 0,-0.0455 0.38695,-0.43249 0.8599,-0.8599 l 0.85989,-0.77711 -0.7771,0.8599 c -0.72437,0.80155 -0.94269,0.98151 -0.94269,0.77711 z m 3.43958,-3.43959 c 0,-0.0455 0.38696,-0.43249 0.8599,-0.85989 l 0.8599,-0.77711 -0.77711,0.8599 c -0.72437,0.80154 -0.94269,0.98151 -0.94269,0.7771 z m 3.04271,-3.35679 c 0.26339,-0.29104 0.53842,-0.52917 0.61118,-0.52917 0.0728,0 -0.0832,0.23813 -0.3466,0.52917 -0.26339,0.29104 -0.53842,0.52917 -0.61118,0.52917 -0.0728,0 0.0832,-0.23813 0.3466,-0.52917 z m 1.19063,-1.42281 c 0,-0.0549 0.20836,-0.2633 0.46302,-0.46302 0.41964,-0.32911 0.429,-0.31975 0.0999,0.0999 -0.34564,0.44073 -0.56291,0.58089 -0.56291,0.36313 z M 33.058069,130.08996 c -0.329107,-0.41965 -0.319749,-0.42901 0.09989,-0.0999 0.254661,0.19972 0.463021,0.40808 0.463021,0.46302 0,0.21777 -0.217273,0.0776 -0.562916,-0.36312 z m -1.711181,-1.45521 -0.504028,-0.59531 0.595312,0.50403 c 0.559447,0.47366 0.715762,0.68659 0.504028,0.68659 -0.05021,0 -0.318097,-0.26789 -0.595312,-0.59531 z m -5.697152,-5.68854 c -0.329108,-0.41965 -0.319749,-0.42901 0.0999,-0.0999 0.254661,0.19972 0.463021,0.40808 0.463021,0.46302 0,0.21777 -0.217273,0.0776 -0.562916,-0.36312 z m -1.322917,-1.5875 c -0.329107,-0.41965 -0.319749,-0.42901 0.0999,-0.0999 0.254662,0.19972 0.463021,0.40808 0.463021,0.46302 0,0.21777 -0.217272,0.0776 -0.562916,-0.36312 z m 13.283804,-3.1309 c 0.0127,-0.30823 0.07539,-0.37092 0.159851,-0.15986 0.07643,0.191 0.06703,0.4192 -0.02088,0.50712 -0.08792,0.0879 -0.150452,-0.0683 -0.138964,-0.34726 z m -0.264583,-1.5875 c 0.0127,-0.30823 0.07539,-0.37092 0.159851,-0.15986 0.07643,0.191 0.06703,0.4192 -0.02088,0.50712 -0.08792,0.0879 -0.150453,-0.0684 -0.138964,-0.34726 z m -0.264583,-2.38125 c 0.0127,-0.30823 0.07539,-0.37092 0.15985,-0.15986 0.07643,0.191 0.06703,0.4192 -0.02087,0.50712 -0.08792,0.0879 -0.150453,-0.0683 -0.138965,-0.34726 z m 53.891048,-6.91196 c 0.329118,-0.0633 0.805368,-0.0609 1.058333,0.005 0.252966,0.0662 -0.01632,0.11801 -0.598397,0.11507 -0.582083,-0.003 -0.789054,-0.0571 -0.459936,-0.12041 z m 10.318745,0 c 0.32912,-0.0633 0.80537,-0.0609 1.05834,0.005 0.25296,0.0662 -0.0163,0.11801 -0.5984,0.11507 -0.58208,-0.003 -0.78905,-0.0571 -0.45994,-0.12041 z m -64.188907,-0.87121 c 0,-0.3638 0.06006,-0.51263 0.133453,-0.33072 0.0734,0.1819 0.0734,0.47955 0,0.66145 -0.0734,0.1819 -0.133453,0.0331 -0.133453,-0.33073 z m 46.47528,0.34843 c 0.190995,-0.0764 0.419201,-0.067 0.507119,0.0209 0.08792,0.0879 -0.06835,0.15045 -0.347265,0.13896 -0.308227,-0.0127 -0.37092,-0.0754 -0.159854,-0.15985 z m -2.397786,-0.25907 c 0.181901,-0.0734 0.479557,-0.0734 0.661458,0 0.181901,0.0734 0.03307,0.13345 -0.330729,0.13345 -0.363802,0 -0.51263,-0.0601 -0.330729,-0.13345 z m 30.179033,-0.006 c 0.191,-0.0764 0.4192,-0.067 0.50712,0.0209 0.0879,0.0879 -0.0683,0.15045 -0.34726,0.13897 -0.30823,-0.0127 -0.37092,-0.0754 -0.15986,-0.15985 z m -31.749996,-0.26459 c 0.190994,-0.0764 0.4192,-0.067 0.507119,0.0209 0.08792,0.0879 -0.06835,0.15045 -0.347266,0.13896 -0.308226,-0.0127 -0.370919,-0.0754 -0.159853,-0.15985 z m 33.602086,0 c 0.19099,-0.0764 0.4192,-0.067 0.50711,0.0209 0.0879,0.0879 -0.0683,0.15045 -0.34726,0.13896 -0.30823,-0.0127 -0.37092,-0.0754 -0.15985,-0.15985 z m -35.45417,-0.26458 c 0.190995,-0.0764 0.419201,-0.067 0.507119,0.0209 0.08792,0.0879 -0.06835,0.15045 -0.347265,0.13896 -0.308227,-0.0127 -0.37092,-0.0754 -0.159854,-0.15985 z m -40.41075,-2.09027 c 0.0127,-0.30822 0.07539,-0.37092 0.159851,-0.15985 0.07643,0.19099 0.06703,0.4192 -0.02088,0.50712 -0.08792,0.0879 -0.150453,-0.0684 -0.138964,-0.34727 z M 16.443957,101.0299 c 0.01269,-0.30823 0.07539,-0.37092 0.159852,-0.15986 0.07643,0.191 0.06703,0.4192 -0.02089,0.50712 -0.08792,0.0879 -0.150453,-0.0684 -0.138964,-0.34726 z m 77.840737,0.22411 c 0.695616,-0.0547 1.767179,-0.054 2.38125,0.002 0.614074,0.0555 0.04493,0.10023 -1.264753,0.0994 -1.309688,-7.9e-4 -1.81211,-0.0462 -1.116497,-0.10088 z m 7.268056,0.003 c 0.47295,-0.0587 1.24685,-0.0587 1.71979,0 0.47295,0.0587 0.086,0.10671 -0.85989,0.10671 -0.94589,0 -1.33284,-0.048 -0.8599,-0.10671 z m -12.827253,-0.25654 c 0.257431,-0.0671 0.614619,-0.0627 0.79375,0.01 0.179131,0.0725 -0.03149,0.12736 -0.468056,0.12197 -0.436563,-0.005 -0.583126,-0.0647 -0.325694,-0.13178 z m 18.780383,10e-4 c 0.25466,-0.0665 0.67138,-0.0665 0.92604,0 0.25466,0.0666 0.0463,0.121 -0.46302,0.121 -0.50932,0 -0.71768,-0.0545 -0.46302,-0.121 z m -21.6908,-0.26555 c 0.257432,-0.0671 0.614619,-0.0627 0.79375,0.01 0.179131,0.0725 -0.03149,0.12737 -0.468056,0.12197 -0.436562,-0.005 -0.583125,-0.0647 -0.325694,-0.13177 z m 24.60121,0.001 c 0.25467,-0.0665 0.67138,-0.0665 0.92605,0 0.25466,0.0666 0.0463,0.12101 -0.46302,0.12101 -0.50933,0 -0.71769,-0.0544 -0.46303,-0.12101 z M 78.815124,99.945351 c 0.190994,-0.07643 0.4192,-0.06703 0.507119,0.02088 0.08792,0.08791 -0.06835,0.150459 -0.347266,0.138969 -0.308226,-0.0127 -0.370919,-0.0754 -0.159853,-0.159855 z m 40.481246,-0.264584 c 0.191,-0.07643 0.4192,-0.06703 0.50712,0.02088 0.0879,0.08792 -0.0683,0.150453 -0.34726,0.138964 -0.30823,-0.0127 -0.37092,-0.07539 -0.15986,-0.15985 z m 1.5875,-0.264583 c 0.191,-0.07643 0.4192,-0.06703 0.50712,0.02088 0.0879,0.08792 -0.0683,0.150453 -0.34726,0.138965 -0.30823,-0.0127 -0.37092,-0.07539 -0.15986,-0.159851 z m 5.55625,-1.058334 c 0.191,-0.07643 0.4192,-0.06703 0.50712,0.02088 0.0879,0.08792 -0.0683,0.150453 -0.34726,0.138965 -0.30823,-0.0127 -0.37092,-0.07539 -0.15986,-0.159851 z M 18.547838,89.939436 c 0,-0.145521 0.115416,-0.443178 0.25648,-0.661459 0.141065,-0.218281 0.256481,-0.277812 0.256481,-0.132291 0,0.14552 -0.115416,0.443177 -0.256481,0.661458 -0.141064,0.218281 -0.25648,0.277812 -0.25648,0.132292 z M 42.10854,89.123638 c 0.0127,-0.308227 0.07539,-0.37092 0.15985,-0.159854 0.07643,0.190995 0.06703,0.419201 -0.02087,0.507119 -0.08792,0.08792 -0.150453,-0.06835 -0.138965,-0.347265 z M 166.2922,83.429111 c -0.11911,-0.192725 -0.0851,-0.249338 0.0861,-0.143491 0.15558,0.09615 0.33627,0.02524 0.40154,-0.157557 0.0653,-0.182809 0.19737,-0.260049 0.29357,-0.171643 0.0962,0.0884 0.004,0.302545 -0.2048,0.475869 -0.29399,0.243988 -0.42413,0.243271 -0.57644,-0.0032 z m -88.270826,-2.79854 c 0.190994,-0.07643 0.4192,-0.06703 0.507119,0.02088 0.08792,0.08792 -0.06835,0.150453 -0.347266,0.138965 -0.308226,-0.0127 -0.370919,-0.07539 -0.159853,-0.159851 z m 12.699999,0 c 0.190995,-0.07643 0.419201,-0.06703 0.507119,0.02088 0.08792,0.08792 -0.06835,0.150453 -0.347266,0.138965 -0.308226,-0.0127 -0.370919,-0.0754 -0.159853,-0.159856 z M 74.173414,80.363373 c 0.257432,-0.06708 0.614619,-0.06267 0.79375,0.0098 0.179131,0.07248 -0.03149,0.127363 -0.468056,0.121971 -0.436562,-0.0054 -0.583126,-0.06469 -0.325694,-0.131774 z m 20.367881,0.0011 c 0.254661,-0.06655 0.67138,-0.06655 0.926042,0 0.254661,0.06655 0.0463,0.121001 -0.463021,0.121001 -0.509323,0 -0.717683,-0.05445 -0.463021,-0.121001 z M 71.792164,80.09888 c 0.257432,-0.06708 0.614619,-0.06267 0.79375,0.0098 0.179131,0.07248 -0.03149,0.127362 -0.468056,0.12197 -0.436562,-0.0054 -0.583126,-0.06469 -0.325694,-0.131773 z m 25.399999,0 c 0.257432,-0.06708 0.614619,-0.06267 0.79375,0.0098 0.179131,0.07248 -0.03149,0.127362 -0.468056,0.12197 -0.436562,-0.0054 -0.583125,-0.06469 -0.325694,-0.131773 z M 69.819291,79.836821 c 0.190994,-0.07643 0.419197,-0.06703 0.507119,0.02088 0.08792,0.08792 -0.06835,0.150453 -0.347266,0.138965 -0.308226,-0.0127 -0.370919,-0.07539 -0.159853,-0.159851 z m 29.368749,0 c 0.190994,-0.07643 0.4192,-0.06703 0.507118,0.02088 0.08792,0.08792 -0.06835,0.150453 -0.347265,0.138965 -0.308226,-0.0127 -0.37092,-0.07539 -0.159853,-0.159851 z m -51.279556,-0.18374 c 0,-0.05494 0.208359,-0.2633 0.463021,-0.463021 0.419645,-0.329107 0.429003,-0.319749 0.0999,0.0999 -0.345644,0.44073 -0.562917,0.580887 -0.562917,0.363125 z M 86.20692,75.079832 c 0.181901,-0.0734 0.479557,-0.0734 0.661459,0 0.181901,0.0734 0.03307,0.133453 -0.33073,0.133453 -0.363802,0 -0.51263,-0.06006 -0.330729,-0.133453 z m 1.322917,0 c 0.181901,-0.0734 0.479557,-0.0734 0.661458,0 0.181901,0.0734 0.03307,0.133453 -0.330729,0.133453 -0.363802,0 -0.51263,-0.06006 -0.330729,-0.133453 z M 97.45535,75.0652 c 0.402182,-0.06082 0.997495,-0.05919 1.322916,0.0036 0.325422,0.0628 -0.0037,0.112559 -0.731242,0.110574 -0.727604,-0.0021 -0.993857,-0.05337 -0.591674,-0.114186 z M 81.84633,74.807123 c 0.257432,-0.06708 0.61462,-0.06267 0.79375,0.0098 0.179131,0.07248 -0.03149,0.127363 -0.468055,0.12197 -0.436563,-0.0054 -0.583126,-0.06469 -0.325695,-0.131773 z m 21.16667,0 c 0.25743,-0.06708 0.61462,-0.06267 0.79375,0.0098 0.17913,0.07248 -0.0315,0.127363 -0.46806,0.12197 -0.43656,-0.0054 -0.58313,-0.06469 -0.32569,-0.131773 z M 78.798587,74.550665 c 0.181901,-0.0734 0.479557,-0.0734 0.661458,0 0.181902,0.0734 0.03307,0.133453 -0.330729,0.133453 -0.363802,0 -0.51263,-0.06005 -0.330729,-0.133453 z m 27.124823,-0.0081 c 0.25743,-0.06708 0.61462,-0.06267 0.79375,0.0098 0.17913,0.07248 -0.0315,0.127363 -0.46805,0.121971 -0.43657,-0.0054 -0.58313,-0.06469 -0.3257,-0.131773 z M 76.698457,74.28057 c 0.190995,-0.07643 0.419201,-0.06703 0.507119,0.02088 0.08792,0.08792 -0.06835,0.150453 -0.347266,0.138964 -0.308226,-0.0127 -0.370919,-0.07539 -0.159853,-0.15985 z M 29.519943,73.138393 c 0.263389,-0.291041 0.538421,-0.529166 0.611181,-0.529166 0.07276,0 -0.08321,0.238125 -0.346598,0.529166 -0.263389,0.291042 -0.53842,0.529167 -0.61118,0.529167 -0.07276,0 0.08321,-0.238125 0.346597,-0.529167 z m 39.241014,0.08384 c 0.190995,-0.07643 0.419198,-0.06703 0.507119,0.02088 0.08792,0.08792 -0.06835,0.150452 -0.347265,0.138964 -0.308227,-0.0127 -0.37092,-0.07539 -0.159854,-0.159851 z M 67.871296,72.91892 c -0.138245,-0.120706 -1.084792,-0.366834 -2.103438,-0.546952 -3.021052,-0.534181 -3.307291,-0.594122 -3.307291,-0.692587 0,-0.05172 0.13726,-0.429217 0.305025,-0.838872 0.167764,-0.409657 0.344098,-0.923422 0.391856,-1.141703 0.229888,-1.050727 1.361971,-3.41158 1.552971,-3.238575 0.118931,0.107726 0.13275,0.05054 0.03071,-0.127092 -0.188595,-0.328306 0.497409,-1.924868 0.95395,-2.220164 0.137647,-0.08903 0.240096,-0.23786 0.227666,-0.330729 -0.09134,-0.682493 0.02103,-1.227191 0.253154,-1.227191 0.291475,0 0.6883,-0.28566 1.745839,-1.25677 0.356563,-0.327422 0.696709,-0.595313 0.755883,-0.595313 0.05917,0 0.885547,-0.54383 1.836383,-1.208511 0.981419,-0.686062 1.862434,-1.125916 2.037932,-1.017455 0.176953,0.109365 0.238577,0.07689 0.144121,-0.07594 -0.09076,-0.146852 0.157882,-0.552202 0.55254,-0.900777 0.517189,-0.456801 0.602118,-0.486011 0.304149,-0.104606 -0.227375,0.291042 -0.697492,1.265201 -1.044707,2.1648 -0.347213,0.899597 -0.724511,1.578023 -0.838441,1.507612 -0.113927,-0.07041 -0.140856,0.04471 -0.05984,0.255833 0.08101,0.211119 0.01818,0.463656 -0.139639,0.561192 -0.157816,0.09753 -0.219284,0.286801 -0.136599,0.420587 0.08268,0.133789 -0.07329,0.750639 -0.34662,1.37078 -0.273325,0.620141 -0.840433,2.258624 -1.260234,3.641072 -0.419804,1.382448 -0.857938,2.553475 -0.97363,2.602285 -0.115694,0.04881 -0.144751,0.19489 -0.06457,0.324626 0.08018,0.129733 2.65e-4,0.744643 -0.177384,1.366464 -0.177742,0.621821 -0.302133,1.21988 -0.276426,1.329021 0.06069,0.257651 -0.05164,0.25115 -0.363363,-0.02103 z M 65.90015,65.084217 c 0,-0.06417 -0.119062,-0.190262 -0.264583,-0.280199 -0.145521,-0.08994 -0.264584,-0.03743 -0.264584,0.116676 0,0.154109 0.119063,0.280199 0.264584,0.280199 0.145521,0 0.264583,-0.0525 0.264583,-0.116676 z m -34.26354,5.937509 c 0.716663,-0.727604 1.362555,-1.322916 1.435316,-1.322916 0.07276,0 -0.45407,0.595312 -1.170733,1.322916 -0.716663,0.727605 -1.362555,1.322917 -1.435316,1.322917 -0.07276,0 0.454069,-0.595312 1.170733,-1.322917 z m 89.25449,0.977117 c 0.21822,-0.262943 0.12502,-0.592865 -0.37558,-1.329563 -0.36619,-0.538908 -0.59805,-1.089475 -0.51524,-1.223475 0.0828,-0.134001 -0.0148,-0.340255 -0.21699,-0.458338 -0.59034,-0.344816 -4.13889,-5.164204 -3.98536,-5.412624 0.0768,-0.124317 -0.0293,-0.226034 -0.2358,-0.226034 -0.43192,0 -3.52907,-3.416591 -3.41949,-3.772175 0.04,-0.129749 -0.032,-0.171196 -0.15998,-0.0921 -0.31251,0.193143 -1.42715,-1.015389 -1.17191,-1.270627 0.11047,-0.110472 0.0739,-0.161171 -0.0813,-0.112662 -0.36775,0.114958 -4.36892,-3.50048 -4.19155,-3.787474 0.0746,-0.120623 -0.0331,-0.154588 -0.23929,-0.07548 -0.21902,0.08405 -0.68069,-0.219657 -1.11065,-0.730633 -0.4047,-0.48096 -0.78066,-0.841164 -0.83547,-0.800452 -0.0548,0.04071 -0.36487,-0.116123 -0.68903,-0.34852 -0.32415,-0.232394 -1.83953,-1.301536 -3.3675,-2.375871 -1.527966,-1.074333 -2.897185,-2.055249 -3.042706,-2.179812 -0.145521,-0.124561 -0.324115,-0.238578 -0.396875,-0.253368 -0.585899,-0.119102 -1.543476,-0.726755 -1.431298,-0.908264 0.129781,-0.209987 -0.265589,-0.3385 -0.771181,-0.250669 -0.119957,0.02082 -0.142695,-0.08413 -0.05053,-0.233252 0.09216,-0.149127 0.321276,-0.271139 0.509135,-0.271139 0.187859,0 0.836004,-0.358172 1.440323,-0.795938 0.604319,-0.437767 1.068665,-0.658895 1.031885,-0.4914 -0.03678,0.167497 0.561137,0.562419 1.328709,0.877609 0.767572,0.31519 1.343138,0.625616 1.279028,0.689838 -0.0641,0.06422 0.16057,0.133281 0.49929,0.153469 0.79037,0.0471 2.77922,0.92048 2.77922,1.220454 0,0.126106 0.11191,0.16012 0.24868,0.07559 0.34146,-0.211037 1.91437,0.77665 1.6686,1.047774 -0.10862,0.119822 -0.0454,0.130196 0.14049,0.02305 0.38376,-0.221194 2.70473,0.814994 2.70473,1.207517 0,0.141128 0.10495,0.191735 0.23322,0.112461 0.12827,-0.07928 0.66934,0.151823 1.20237,0.513551 0.53304,0.361727 1.02974,0.657688 1.10378,0.657688 0.17708,0 3.42308,2.141794 4.60438,3.038086 0.50932,0.386442 0.89333,0.822312 0.85334,0.9686 -0.04,0.146291 0.0493,0.190571 0.19844,0.09841 0.14913,-0.09217 0.27114,-0.04148 0.27114,0.112625 0,0.15411 0.0893,0.252212 0.19844,0.218004 0.32575,-0.1021 3.49757,2.549438 5.60343,4.6843 1.08098,1.095864 1.8619,1.992479 1.73537,1.992479 -0.12652,0 0.001,0.187423 0.28354,0.416497 0.28248,0.229071 0.34637,0.329739 0.14198,0.223702 -0.24643,-0.127849 -0.30711,-0.08844 -0.18015,0.116986 0.1053,0.170378 0.28638,0.251116 0.40239,0.179411 0.33643,-0.207923 1.1492,0.846635 0.92816,1.20428 -0.11773,0.190484 -0.0887,0.253913 0.071,0.155202 0.14856,-0.09181 0.48307,0.06838 0.74335,0.355994 0.26028,0.28761 0.38862,0.522928 0.28519,0.522928 -0.10343,0 0.0997,0.267891 0.45147,0.595313 0.35174,0.327422 1.07899,1.21507 1.61611,1.972551 l 0.97658,1.377238 -1.93208,0.565346 c -1.06265,0.310941 -2.61717,0.792512 -3.45449,1.070157 -0.83733,0.277646 -1.73029,0.505545 -1.98438,0.506442 -0.25408,7.94e-4 -0.8047,0.180374 -1.22359,0.398838 -0.5541,0.288976 -0.68255,0.301911 -0.47138,0.04748 z m -0.88366,-13.9417 c -0.0899,-0.145521 -0.30532,-0.262761 -0.47864,-0.260533 -0.18934,0.0024 -0.1567,0.106423 0.0818,0.260533 0.5083,0.328488 0.59989,0.328488 0.39688,0 z M 56.590124,71.10557 c 0.190995,-0.07643 0.419198,-0.06703 0.507119,0.02088 0.08792,0.08792 -0.06835,0.150453 -0.347265,0.138964 -0.308227,-0.0127 -0.37092,-0.07539 -0.159854,-0.15985 z m 0.84336,-1.803635 c 0.341775,-0.363802 0.680939,-0.661459 0.7537,-0.661459 0.07276,0 -0.147341,0.297657 -0.489117,0.661459 -0.341775,0.363802 -0.68094,0.661458 -0.7537,0.661458 -0.07276,0 0.147341,-0.297656 0.489117,-0.661458 z m -22.224999,-1.5875 c 0.341774,-0.363802 0.680939,-0.661459 0.7537,-0.661459 0.07276,0 -0.147342,0.297657 -0.489117,0.661459 -0.341774,0.363802 -0.680939,0.661458 -0.7537,0.661458 -0.07276,0 0.147342,-0.297656 0.489117,-0.661458 z M 141.13001,65.344824 c 0,-0.211881 0.10116,-0.322715 0.2248,-0.246301 0.12364,0.07641 0.1563,0.249769 0.0726,0.385236 -0.21395,0.346175 -0.29738,0.307197 -0.29738,-0.138935 z m 1.4993,-0.937681 c 0,-0.145521 0.12609,-0.264584 0.2802,-0.264584 0.15411,0 0.20662,0.119063 0.11668,0.264584 -0.0899,0.145521 -0.21603,0.264583 -0.2802,0.264583 -0.0642,0 -0.11668,-0.119062 -0.11668,-0.264583 z M 41.558484,62.719747 c 0,-0.05494 0.20836,-0.2633 0.463021,-0.463021 0.419645,-0.329107 0.429003,-0.319749 0.0999,0.0999 -0.345644,0.44073 -0.562917,0.580887 -0.562917,0.363125 z m -11.104085,-4.05229 c -0.0046,-0.173649 0.199945,-0.471305 0.454607,-0.661458 0.254661,-0.190151 0.502572,-0.523918 0.550912,-0.741699 0.136757,-0.616109 0.605006,-1.071041 0.909009,-0.883155 0.151647,0.09372 0.197254,0.04368 0.101455,-0.111329 -0.246745,-0.39924 0.09205,-1.154457 0.425457,-0.948399 0.152757,0.09441 0.205186,0.05426 0.11651,-0.08922 -0.21766,-0.352181 3.208709,-5.003599 3.603639,-4.892067 0.171757,0.04851 0.227196,0.0031 0.123193,-0.100901 -0.238948,-0.238945 0.494115,-1.310209 0.896572,-1.310209 0.165227,0 0.332883,-0.221252 0.372573,-0.49167 0.03969,-0.270417 0.348695,-0.805397 0.686681,-1.188841 0.337985,-0.383448 0.926833,-1.055164 1.30855,-1.492706 3.649705,-4.183475 8.425878,-8.901632 8.785865,-8.679147 0.142537,0.08809 0.18184,0.03507 0.08735,-0.117828 -0.209489,-0.338959 4.136033,-4.083309 4.617873,-3.979025 0.188603,0.04082 0.348327,-0.08421 0.354942,-0.277841 0.01442,-0.422211 0.930084,-1.139314 1.223346,-0.958068 0.114027,0.07047 0.293478,-0.01127 0.398777,-0.181647 0.128098,-0.207266 0.06848,-0.242863 -0.180155,-0.107571 -0.204385,0.111216 -0.0177,-0.09461 0.414854,-0.457396 0.432554,-0.362783 0.958101,-0.593741 1.167881,-0.513241 0.209783,0.0805 0.309957,0.03073 0.222615,-0.11059 -0.167132,-0.270425 3.166962,-2.658938 3.552462,-2.54495 0.123037,0.03638 0.223703,-0.03099 0.223703,-0.149717 0,-0.118725 0.47625,-0.483531 1.058333,-0.81068 0.582084,-0.327149 1.058334,-0.523029 1.058334,-0.435289 0,0.08774 0.23546,-0.05984 0.523247,-0.327951 0.815044,-0.759328 4.483518,-2.485702 4.843129,-2.279162 0.177189,0.101768 0.23467,0.08837 0.127731,-0.02977 -0.555861,-0.614101 10.313323,-4.56115 11.686822,-4.243967 0.429824,0.09926 0.55186,0.07196 0.333018,-0.0745 -0.414152,-0.277168 3.432429,-1.165816 5.240218,-1.210609 0.654844,-0.01623 1.250903,-0.108637 1.324576,-0.205357 0.6502,-0.85361 15.532822,-0.925304 20.106672,-0.09686 1.23693,0.22404 2.84427,0.464792 3.57187,0.535004 0.72761,0.07021 1.62058,0.235775 1.98438,0.367918 0.3638,0.132144 1.37583,0.38062 2.24896,0.552169 2.31657,0.455155 6.63795,1.744359 8.99583,2.683744 0.43656,0.173928 0.95182,0.34829 1.14502,0.387472 0.8564,0.173683 5.60185,2.310422 5.60185,2.522348 0,0.129535 0.0893,0.22142 0.19844,0.204187 0.59388,-0.09377 1.09168,0.09373 1.66369,0.626644 0.35145,0.327422 0.67209,0.563413 0.71254,0.524425 0.16417,-0.158231 1.39094,0.277456 1.64575,0.584486 0.21591,0.260163 -1.01902,0.377005 -5.87613,0.555959 -3.38222,0.124614 -7.04246,0.232599 -8.13387,0.239965 -1.0914,0.0074 -2.0439,0.07783 -2.11667,0.156594 -0.0728,0.07876 -1.91822,0.352458 -4.10104,0.608218 -5.77187,0.676289 -9.24996,1.166948 -11.58473,1.634274 -1.13286,0.226751 -2.18796,0.333025 -2.34469,0.236165 -0.15672,-0.09686 -0.36093,-0.05316 -0.45381,0.09711 -0.0929,0.150273 -0.704636,0.314355 -1.359477,0.364627 -0.654841,0.05027 -1.250151,0.161239 -1.322911,0.246594 -0.07276,0.08535 -1.441979,0.421305 -3.042708,0.746556 -1.600729,0.325251 -3.483237,0.773415 -4.183351,0.99592 -0.700114,0.222506 -1.50395,0.344143 -1.786303,0.270306 -0.317486,-0.08302 -0.447746,-0.02807 -0.341389,0.144021 0.110813,0.179297 -0.08053,0.230001 -0.537959,0.142557 -0.390466,-0.07464 -0.644159,-0.06993 -0.563763,0.01046 0.157205,0.157204 -2.476966,1.046725 -3.567443,1.204673 -0.363802,0.05269 -0.974074,0.222261 -1.356164,0.376816 -1.329087,0.537618 -2.89142,0.870802 -3.214002,0.685421 -0.178544,-0.102604 -0.232268,-0.08503 -0.119383,0.03906 0.289824,0.318591 -4.04649,1.744136 -4.698272,1.544535 -0.29373,-0.08995 -0.440569,-0.06519 -0.326306,0.05502 0.289894,0.304993 -2.082297,1.195621 -2.627399,0.986447 -0.324729,-0.124611 -0.386514,-0.07578 -0.228211,0.180353 0.162843,0.263488 0.07445,0.313931 -0.353838,0.20193 -0.313997,-0.08211 -0.504182,-0.04134 -0.422632,0.09061 0.08155,0.13195 0.0104,0.239908 -0.158086,0.239908 -0.168498,0 -0.681541,0.159867 -1.140095,0.355256 -3.011675,1.283282 -3.810267,1.570797 -4.339466,1.56233 -0.327422,-0.0052 -0.595312,0.109681 -0.595312,0.255379 0,0.145695 -0.204729,0.186338 -0.454956,0.09032 -0.250225,-0.09602 -0.373931,-0.09356 -0.2749,0.0055 0.16727,0.167269 -1.516213,1.170829 -1.964081,1.170829 -0.110437,0 -0.86246,0.302651 -1.671156,0.672555 -0.808696,0.369906 -1.615898,0.588944 -1.793777,0.486748 -0.177882,-0.102195 -0.233672,-0.08689 -0.123979,0.03401 0.267711,0.295055 -2.960952,1.706877 -3.462916,1.514255 -0.224629,-0.0862 -0.325007,-0.03807 -0.232564,0.111509 0.2052,0.33202 -2.125734,1.486757 -2.51523,1.246037 -0.158511,-0.09797 -0.217603,-0.06389 -0.131318,0.07572 0.20237,0.327443 -4.775019,2.808256 -5.158652,2.571158 -0.159443,-0.09854 -0.219252,-0.06486 -0.132911,0.07485 0.08634,0.139705 -0.282212,0.485421 -0.819015,0.76825 -0.536802,0.282831 -1.902843,1.021728 -3.035646,1.641993 -1.132803,0.620266 -2.199717,1.15615 -2.370918,1.190858 -0.171202,0.03471 -0.529432,0.255344 -0.796063,0.490302 -0.266634,0.234955 -1.10472,0.761368 -1.862415,1.169805 -0.757695,0.408435 -1.437158,0.821817 -1.509919,0.918626 -0.304258,0.404815 -2.806599,1.7072 -3.135405,1.631873 -0.196505,-0.04502 -0.286824,0.03215 -0.20071,0.171487 0.08611,0.139338 -0.140062,0.447701 -0.502615,0.685255 -0.362552,0.237548 -0.659186,0.346876 -0.659186,0.242948 0,-0.103928 -0.174807,0.04216 -0.388461,0.324631 -0.213653,0.282474 -0.392247,0.371514 -0.396875,0.197863 z M 108.18387,33.799318 c 0.191,-0.07643 0.4192,-0.06703 0.50712,0.02089 0.0879,0.08792 -0.0683,0.150452 -0.34726,0.138964 -0.30823,-0.0127 -0.37092,-0.07539 -0.15986,-0.159853 z m 35.71875,-6.879167 c 0.191,-0.07643 0.4192,-0.06703 0.50712,0.02089 0.0879,0.08792 -0.0684,0.150453 -0.34727,0.138964 -0.30822,-0.01269 -0.37091,-0.07539 -0.15985,-0.159852 z m 1.85208,-0.264584 c 0.191,-0.07643 0.41921,-0.06703 0.50712,0.02089 0.0879,0.08792 -0.0684,0.150453 -0.34726,0.138965 -0.30823,-0.0127 -0.37092,-0.07539 -0.15986,-0.159853 z"
           id="path2917" />
      </g>
    </clipPath>
    <linearGradient
       gradientUnits="userSpaceOnUse"
       y2="23.167316"
       x2="76.358307"
       y1="23.167316"
       x1="19.684731"
       id="linearGradient3011"
       xlink:href="#linearGradient3009"
       inkscape:collect="always" />
    <linearGradient
       gradientTransform="matrix(0.74267958,0,0,0.74267958,3.7011024,3.7271484)"
       gradientUnits="userSpaceOnUse"
       y2="23.167316"
       x2="76.358307"
       y1="23.167316"
       x1="19.684731"
       id="linearGradient3019"
       xlink:href="#linearGradient3017"
       inkscape:collect="always" />
  </defs>
  <sodipodi:namedview
     inkscape:window-maximized="1"
     inkscape:window-y="-8"
     inkscape:window-x="-8"
     inkscape:window-height="1017"
     inkscape:window-width="1920"
     inkscape:snap-nodes="true"
     showgrid="false"
     inkscape:document-rotation="0"
     inkscape:current-layer="layer1"
     inkscape:document-units="mm"
     inkscape:cy="-66.330864"
     inkscape:cx="297.65336"
     inkscape:zoom="1.4"
     inkscape:pageshadow="2"
     inkscape:pageopacity="0.0"
     borderopacity="1.0"
     bordercolor="#666666"
     pagecolor="#ffffff"
     id="base" />
  <metadata
     id="metadata5">
    <rdf:RDF>
      <cc:Work
         rdf:about="">
        <dc:format>image/svg+xml</dc:format>
        <dc:type
           rdf:resource="http://purl.org/dc/dcmitype/StillImage" />
        <dc:title />
      </cc:Work>
    </rdf:RDF>
  </metadata>
  <g
     transform="translate(-6.8410158,-10.84622)"
     style="display:inline"
     inkscape:label="Layer 2"
     id="layer2"
     inkscape:groupmode="layer">
    <g
       style="display:inline;opacity:1"
       id="layer1"
       inkscape:groupmode="layer"
       inkscape:label="Layer 1">
      <text
         transform="scale(1.0754512,0.92984227)"
         id="text2923"
         y="18.187435"
         x="18.220499"
         style="font-style:normal;font-weight:normal;font-size:7.88087px;line-height:1.25;font-family:sans-serif;fill:#ff8080;fill-opacity:1;stroke:url(#linearGradient3019);stroke-width:0.197022"
         xml:space="preserve"><tspan
           style="fill:#ff8080;fill-opacity:1;stroke:url(#linearGradient3019);stroke-width:0.197022"
           y="18.187435"
           x="18.220499"
           id="tspan2921"
           sodipodi:role="line">Entregable</tspan><tspan
           id="tspan2925"
           style="fill:#ff8080;fill-opacity:1;stroke:url(#linearGradient3019);stroke-width:0.197022"
           y="28.038523"
           x="18.220499"
           sodipodi:role="line">Angular</tspan></text>
      <g
         style="opacity:1"
         transform="matrix(0.0019796,0,0,-0.00201171,7.4628272,25.302285)"
         fill="#000000"
         stroke="none"
         id="g3077">
        <path
           d="m 4390,5952 c -113,-53 -289,-221 -427,-409 -84,-114 -98,-125 -153,-117 -171,27 -523,-80 -714,-217 l -98,-71 -97,71 c -186,137 -427,215 -661,215 h -115 l -91,123 c -228,310 -551,543 -524,378 5,-30 19,-167 31,-305 12,-137 30,-281 40,-318 17,-66 13,-74 -119,-213 -336,-354 -415,-830 -210,-1265 l 50,-106 -38,-104 c -235,-632 -120,-1587 226,-1874 64,-53 11,-59 -607,-64 l -636,-6 -79,-55 C -74,1448 -40,1100 229,978 304,944 382,941 1287,940 h 977 l -13,-75 C 2226,733 2142,611 1956,440 1743,243 1605,-14 1735,26 2288,199 2424,223 2534,165 2832,7 2821,10 3000,10 c 179,0 168,-3 466,155 110,58 246,34 799,-139 130,-40 -8,217 -221,414 -186,171 -270,293 -295,425 l -13,75 h 977 c 905,1 983,4 1058,38 269,122 303,470 61,637 l -79,55 -636,6 c -618,5 -671,11 -607,64 346,287 461,1244 225,1877 l -39,107 51,103 c 208,416 127,909 -208,1262 -135,141 -136,144 -120,222 10,43 27,178 39,299 13,121 27,258 32,305 5,47 7,85 5,85 -3,0 -50,-22 -105,-48 z M 2430,5053 c 250,-67 549,-348 550,-518 0,-19 9,-35 20,-35 11,0 20,16 20,35 1,170 300,451 550,518 734,196 1249,-740 706,-1280 -233,-231 -581,-286 -874,-138 -71,36 -130,63 -132,60 -2,-3 -61,-115 -132,-250 -70,-135 -132,-245 -138,-245 -6,0 -68,110 -138,245 -71,135 -130,247 -132,250 -2,3 -61,-24 -132,-60 -297,-151 -682,-79 -905,167 -500,553 23,1441 737,1251 z m -55,-3239 c 25,-23 45,-55 45,-72 0,-19 25,-1 61,43 78,95 190,105 270,26 47,-47 49,-60 49,-311 0,-251 -2,-264 -49,-311 -80,-79 -192,-69 -270,26 -40,49 -61,63 -61,41 0,-104 -198,-150 -294,-68 l -56,49 v 260 c 0,246 3,262 47,310 75,79 175,82 258,7 z m 1146,-31 c 36,-44 59,-60 59,-41 0,114 205,162 298,70 51,-52 52,-59 52,-314 v -261 l -56,-49 c -93,-80 -294,-37 -294,63 0,16 -9,29 -20,29 -11,0 -20,-11 -20,-24 0,-108 -203,-155 -291,-67 -54,55 -75,504 -27,594 57,108 210,108 299,0 z"
           id="path3071" />
        <path
           d="m 2090,4647 c -352,-186 -235,-697 160,-697 391,0 514,514 166,692 -91,46 -243,48 -326,5 z"
           id="path3073" />
        <path
           d="m 3590,4647 c -352,-186 -235,-697 160,-697 391,0 514,514 166,692 -91,46 -243,48 -326,5 z"
           id="path3075" />
      </g>
    </g>
  </g>
  <script
     id="mesh_polyfill"
     type="text/javascript">
!function(){const t=&quot;http://www.w3.org/2000/svg&quot;,e=&quot;http://www.w3.org/1999/xlink&quot;,s=&quot;http://www.w3.org/1999/xhtml&quot;,r=2;if(document.createElementNS(t,&quot;meshgradient&quot;).x)return;const n=(t,e,s,r)=&gt;{let n=new x(.5*(e.x+s.x),.5*(e.y+s.y)),o=new x(.5*(t.x+e.x),.5*(t.y+e.y)),i=new x(.5*(s.x+r.x),.5*(s.y+r.y)),a=new x(.5*(n.x+o.x),.5*(n.y+o.y)),h=new x(.5*(n.x+i.x),.5*(n.y+i.y)),l=new x(.5*(a.x+h.x),.5*(a.y+h.y));return[[t,o,a,l],[l,h,i,r]]},o=t=&gt;{let e=t[0].distSquared(t[1]),s=t[2].distSquared(t[3]),r=.25*t[0].distSquared(t[2]),n=.25*t[1].distSquared(t[3]),o=e&gt;s?e:s,i=r&gt;n?r:n;return 18*(o&gt;i?o:i)},i=(t,e)=&gt;Math.sqrt(t.distSquared(e)),a=(t,e)=&gt;t.scale(2/3).add(e.scale(1/3)),h=t=&gt;{let e,s,r,n,o,i,a,h=new g;return t.match(/(\w+\(\s*[^)]+\))+/g).forEach(t=&gt;{let l=t.match(/[\w.-]+/g),d=l.shift();switch(d){case&quot;translate&quot;:2===l.length?e=new g(1,0,0,1,l[0],l[1]):(console.error(&quot;mesh.js: translate does not have 2 arguments!&quot;),e=new g(1,0,0,1,0,0)),h=h.append(e);break;case&quot;scale&quot;:1===l.length?s=new g(l[0],0,0,l[0],0,0):2===l.length?s=new g(l[0],0,0,l[1],0,0):(console.error(&quot;mesh.js: scale does not have 1 or 2 arguments!&quot;),s=new g(1,0,0,1,0,0)),h=h.append(s);break;case&quot;rotate&quot;:if(3===l.length&amp;&amp;(e=new g(1,0,0,1,l[1],l[2]),h=h.append(e)),l[0]){r=l[0]*Math.PI/180;let t=Math.cos(r),e=Math.sin(r);Math.abs(t)&lt;1e-16&amp;&amp;(t=0),Math.abs(e)&lt;1e-16&amp;&amp;(e=0),a=new g(t,e,-e,t,0,0),h=h.append(a)}else console.error(&quot;math.js: No argument to rotate transform!&quot;);3===l.length&amp;&amp;(e=new g(1,0,0,1,-l[1],-l[2]),h=h.append(e));break;case&quot;skewX&quot;:l[0]?(r=l[0]*Math.PI/180,n=Math.tan(r),o=new g(1,0,n,1,0,0),h=h.append(o)):console.error(&quot;math.js: No argument to skewX transform!&quot;);break;case&quot;skewY&quot;:l[0]?(r=l[0]*Math.PI/180,n=Math.tan(r),i=new g(1,n,0,1,0,0),h=h.append(i)):console.error(&quot;math.js: No argument to skewY transform!&quot;);break;case&quot;matrix&quot;:6===l.length?h=h.append(new g(...l)):console.error(&quot;math.js: Incorrect number of arguments for matrix!&quot;);break;default:console.error(&quot;mesh.js: Unhandled transform type: &quot;+d)}}),h},l=t=&gt;{let e=[],s=t.split(/[ ,]+/);for(let t=0,r=s.length-1;t&lt;r;t+=2)e.push(new x(parseFloat(s[t]),parseFloat(s[t+1])));return e},d=(t,e)=&gt;{for(let s in e)t.setAttribute(s,e[s])},c=(t,e,s,r,n)=&gt;{let o,i,a=[0,0,0,0];for(let h=0;h&lt;3;++h)e[h]&lt;t[h]&amp;&amp;e[h]&lt;s[h]||t[h]&lt;e[h]&amp;&amp;s[h]&lt;e[h]?a[h]=0:(a[h]=.5*((e[h]-t[h])/r+(s[h]-e[h])/n),o=Math.abs(3*(e[h]-t[h])/r),i=Math.abs(3*(s[h]-e[h])/n),a[h]&gt;o?a[h]=o:a[h]&gt;i&amp;&amp;(a[h]=i));return a},u=[[1,0,0,0,0,0,0,0,0,0,0,0,0,0,0,0],[0,0,0,0,1,0,0,0,0,0,0,0,0,0,0,0],[-3,3,0,0,-2,-1,0,0,0,0,0,0,0,0,0,0],[2,-2,0,0,1,1,0,0,0,0,0,0,0,0,0,0],[0,0,0,0,0,0,0,0,1,0,0,0,0,0,0,0],[0,0,0,0,0,0,0,0,0,0,0,0,1,0,0,0],[0,0,0,0,0,0,0,0,-3,3,0,0,-2,-1,0,0],[0,0,0,0,0,0,0,0,2,-2,0,0,1,1,0,0],[-3,0,3,0,0,0,0,0,-2,0,-1,0,0,0,0,0],[0,0,0,0,-3,0,3,0,0,0,0,0,-2,0,-1,0],[9,-9,-9,9,6,3,-6,-3,6,-6,3,-3,4,2,2,1],[-6,6,6,-6,-3,-3,3,3,-4,4,-2,2,-2,-2,-1,-1],[2,0,-2,0,0,0,0,0,1,0,1,0,0,0,0,0],[0,0,0,0,2,0,-2,0,0,0,0,0,1,0,1,0],[-6,6,6,-6,-4,-2,4,2,-3,3,-3,3,-2,-1,-2,-1],[4,-4,-4,4,2,2,-2,-2,2,-2,2,-2,1,1,1,1]],f=t=&gt;{let e=[];for(let s=0;s&lt;16;++s){e[s]=0;for(let r=0;r&lt;16;++r)e[s]+=u[s][r]*t[r]}return e},p=(t,e,s)=&gt;{const r=e*e,n=s*s,o=e*e*e,i=s*s*s;return t[0]+t[1]*e+t[2]*r+t[3]*o+t[4]*s+t[5]*s*e+t[6]*s*r+t[7]*s*o+t[8]*n+t[9]*n*e+t[10]*n*r+t[11]*n*o+t[12]*i+t[13]*i*e+t[14]*i*r+t[15]*i*o},y=t=&gt;{let e=[],s=[],r=[];for(let s=0;s&lt;4;++s)e[s]=[],e[s][0]=n(t[0][s],t[1][s],t[2][s],t[3][s]),e[s][1]=[],e[s][1].push(...n(...e[s][0][0])),e[s][1].push(...n(...e[s][0][1])),e[s][2]=[],e[s][2].push(...n(...e[s][1][0])),e[s][2].push(...n(...e[s][1][1])),e[s][2].push(...n(...e[s][1][2])),e[s][2].push(...n(...e[s][1][3]));for(let t=0;t&lt;8;++t){s[t]=[];for(let r=0;r&lt;4;++r)s[t][r]=[],s[t][r][0]=n(e[0][2][t][r],e[1][2][t][r],e[2][2][t][r],e[3][2][t][r]),s[t][r][1]=[],s[t][r][1].push(...n(...s[t][r][0][0])),s[t][r][1].push(...n(...s[t][r][0][1])),s[t][r][2]=[],s[t][r][2].push(...n(...s[t][r][1][0])),s[t][r][2].push(...n(...s[t][r][1][1])),s[t][r][2].push(...n(...s[t][r][1][2])),s[t][r][2].push(...n(...s[t][r][1][3]))}for(let t=0;t&lt;8;++t){r[t]=[];for(let e=0;e&lt;8;++e)r[t][e]=[],r[t][e][0]=s[t][0][2][e],r[t][e][1]=s[t][1][2][e],r[t][e][2]=s[t][2][2][e],r[t][e][3]=s[t][3][2][e]}return r};class x{constructor(t,e){this.x=t||0,this.y=e||0}toString(){return`(x=${this.x}, y=${this.y})`}clone(){return new x(this.x,this.y)}add(t){return new x(this.x+t.x,this.y+t.y)}scale(t){return void 0===t.x?new x(this.x*t,this.y*t):new x(this.x*t.x,this.y*t.y)}distSquared(t){let e=this.x-t.x,s=this.y-t.y;return e*e+s*s}transform(t){let e=this.x*t.a+this.y*t.c+t.e,s=this.x*t.b+this.y*t.d+t.f;return new x(e,s)}}class g{constructor(t,e,s,r,n,o){void 0===t?(this.a=1,this.b=0,this.c=0,this.d=1,this.e=0,this.f=0):(this.a=t,this.b=e,this.c=s,this.d=r,this.e=n,this.f=o)}toString(){return`affine: ${this.a} ${this.c} ${this.e} \n       ${this.b} ${this.d} ${this.f}`}append(t){t instanceof g||console.error(&quot;mesh.js: argument to Affine.append is not affine!&quot;);let e=this.a*t.a+this.c*t.b,s=this.b*t.a+this.d*t.b,r=this.a*t.c+this.c*t.d,n=this.b*t.c+this.d*t.d,o=this.a*t.e+this.c*t.f+this.e,i=this.b*t.e+this.d*t.f+this.f;return new g(e,s,r,n,o,i)}}class w{constructor(t,e){this.nodes=t,this.colors=e}paintCurve(t,e){if(o(this.nodes)&gt;r){const s=n(...this.nodes);let r=[[],[]],o=[[],[]];for(let t=0;t&lt;4;++t)r[0][t]=this.colors[0][t],r[1][t]=(this.colors[0][t]+this.colors[1][t])/2,o[0][t]=r[1][t],o[1][t]=this.colors[1][t];let i=new w(s[0],r),a=new w(s[1],o);i.paintCurve(t,e),a.paintCurve(t,e)}else{let s=Math.round(this.nodes[0].x);if(s&gt;=0&amp;&amp;s&lt;e){let r=4*(~~this.nodes[0].y*e+s);t[r]=Math.round(this.colors[0][0]),t[r+1]=Math.round(this.colors[0][1]),t[r+2]=Math.round(this.colors[0][2]),t[r+3]=Math.round(this.colors[0][3])}}}}class m{constructor(t,e){this.nodes=t,this.colors=e}split(){let t=[[],[],[],[]],e=[[],[],[],[]],s=[[[],[]],[[],[]]],r=[[[],[]],[[],[]]];for(let s=0;s&lt;4;++s){const r=n(this.nodes[0][s],this.nodes[1][s],this.nodes[2][s],this.nodes[3][s]);t[0][s]=r[0][0],t[1][s]=r[0][1],t[2][s]=r[0][2],t[3][s]=r[0][3],e[0][s]=r[1][0],e[1][s]=r[1][1],e[2][s]=r[1][2],e[3][s]=r[1][3]}for(let t=0;t&lt;4;++t)s[0][0][t]=this.colors[0][0][t],s[0][1][t]=this.colors[0][1][t],s[1][0][t]=(this.colors[0][0][t]+this.colors[1][0][t])/2,s[1][1][t]=(this.colors[0][1][t]+this.colors[1][1][t])/2,r[0][0][t]=s[1][0][t],r[0][1][t]=s[1][1][t],r[1][0][t]=this.colors[1][0][t],r[1][1][t]=this.colors[1][1][t];return[new m(t,s),new m(e,r)]}paint(t,e){let s,n=!1;for(let t=0;t&lt;4;++t)if((s=o([this.nodes[0][t],this.nodes[1][t],this.nodes[2][t],this.nodes[3][t]]))&gt;r){n=!0;break}if(n){let s=this.split();s[0].paint(t,e),s[1].paint(t,e)}else{new w([...this.nodes[0]],[...this.colors[0]]).paintCurve(t,e)}}}class b{constructor(t){this.readMesh(t),this.type=t.getAttribute(&quot;type&quot;)||&quot;bilinear&quot;}readMesh(t){let e=[[]],s=[[]],r=Number(t.getAttribute(&quot;x&quot;)),n=Number(t.getAttribute(&quot;y&quot;));e[0][0]=new x(r,n);let o=t.children;for(let t=0,r=o.length;t&lt;r;++t){e[3*t+1]=[],e[3*t+2]=[],e[3*t+3]=[],s[t+1]=[];let r=o[t].children;for(let n=0,o=r.length;n&lt;o;++n){let o=r[n].children;for(let r=0,i=o.length;r&lt;i;++r){let i=r;0!==t&amp;&amp;++i;let h,d=o[r].getAttribute(&quot;path&quot;),c=&quot;l&quot;;null!=d&amp;&amp;(c=(h=d.match(/\s*([lLcC])\s*(.*)/))[1]);let u=l(h[2]);switch(c){case&quot;l&quot;:0===i?(e[3*t][3*n+3]=u[0].add(e[3*t][3*n]),e[3*t][3*n+1]=a(e[3*t][3*n],e[3*t][3*n+3]),e[3*t][3*n+2]=a(e[3*t][3*n+3],e[3*t][3*n])):1===i?(e[3*t+3][3*n+3]=u[0].add(e[3*t][3*n+3]),e[3*t+1][3*n+3]=a(e[3*t][3*n+3],e[3*t+3][3*n+3]),e[3*t+2][3*n+3]=a(e[3*t+3][3*n+3],e[3*t][3*n+3])):2===i?(0===n&amp;&amp;(e[3*t+3][3*n+0]=u[0].add(e[3*t+3][3*n+3])),e[3*t+3][3*n+1]=a(e[3*t+3][3*n],e[3*t+3][3*n+3]),e[3*t+3][3*n+2]=a(e[3*t+3][3*n+3],e[3*t+3][3*n])):(e[3*t+1][3*n]=a(e[3*t][3*n],e[3*t+3][3*n]),e[3*t+2][3*n]=a(e[3*t+3][3*n],e[3*t][3*n]));break;case&quot;L&quot;:0===i?(e[3*t][3*n+3]=u[0],e[3*t][3*n+1]=a(e[3*t][3*n],e[3*t][3*n+3]),e[3*t][3*n+2]=a(e[3*t][3*n+3],e[3*t][3*n])):1===i?(e[3*t+3][3*n+3]=u[0],e[3*t+1][3*n+3]=a(e[3*t][3*n+3],e[3*t+3][3*n+3]),e[3*t+2][3*n+3]=a(e[3*t+3][3*n+3],e[3*t][3*n+3])):2===i?(0===n&amp;&amp;(e[3*t+3][3*n+0]=u[0]),e[3*t+3][3*n+1]=a(e[3*t+3][3*n],e[3*t+3][3*n+3]),e[3*t+3][3*n+2]=a(e[3*t+3][3*n+3],e[3*t+3][3*n])):(e[3*t+1][3*n]=a(e[3*t][3*n],e[3*t+3][3*n]),e[3*t+2][3*n]=a(e[3*t+3][3*n],e[3*t][3*n]));break;case&quot;c&quot;:0===i?(e[3*t][3*n+1]=u[0].add(e[3*t][3*n]),e[3*t][3*n+2]=u[1].add(e[3*t][3*n]),e[3*t][3*n+3]=u[2].add(e[3*t][3*n])):1===i?(e[3*t+1][3*n+3]=u[0].add(e[3*t][3*n+3]),e[3*t+2][3*n+3]=u[1].add(e[3*t][3*n+3]),e[3*t+3][3*n+3]=u[2].add(e[3*t][3*n+3])):2===i?(e[3*t+3][3*n+2]=u[0].add(e[3*t+3][3*n+3]),e[3*t+3][3*n+1]=u[1].add(e[3*t+3][3*n+3]),0===n&amp;&amp;(e[3*t+3][3*n+0]=u[2].add(e[3*t+3][3*n+3]))):(e[3*t+2][3*n]=u[0].add(e[3*t+3][3*n]),e[3*t+1][3*n]=u[1].add(e[3*t+3][3*n]));break;case&quot;C&quot;:0===i?(e[3*t][3*n+1]=u[0],e[3*t][3*n+2]=u[1],e[3*t][3*n+3]=u[2]):1===i?(e[3*t+1][3*n+3]=u[0],e[3*t+2][3*n+3]=u[1],e[3*t+3][3*n+3]=u[2]):2===i?(e[3*t+3][3*n+2]=u[0],e[3*t+3][3*n+1]=u[1],0===n&amp;&amp;(e[3*t+3][3*n+0]=u[2])):(e[3*t+2][3*n]=u[0],e[3*t+1][3*n]=u[1]);break;default:console.error(&quot;mesh.js: &quot;+c+&quot; invalid path type.&quot;)}if(0===t&amp;&amp;0===n||r&gt;0){let e=window.getComputedStyle(o[r]).stopColor.match(/^rgb\s*\(\s*(\d+)\s*,\s*(\d+)\s*,\s*(\d+)\s*\)$/i),a=window.getComputedStyle(o[r]).stopOpacity,h=255;a&amp;&amp;(h=Math.floor(255*a)),e&amp;&amp;(0===i?(s[t][n]=[],s[t][n][0]=Math.floor(e[1]),s[t][n][1]=Math.floor(e[2]),s[t][n][2]=Math.floor(e[3]),s[t][n][3]=h):1===i?(s[t][n+1]=[],s[t][n+1][0]=Math.floor(e[1]),s[t][n+1][1]=Math.floor(e[2]),s[t][n+1][2]=Math.floor(e[3]),s[t][n+1][3]=h):2===i?(s[t+1][n+1]=[],s[t+1][n+1][0]=Math.floor(e[1]),s[t+1][n+1][1]=Math.floor(e[2]),s[t+1][n+1][2]=Math.floor(e[3]),s[t+1][n+1][3]=h):3===i&amp;&amp;(s[t+1][n]=[],s[t+1][n][0]=Math.floor(e[1]),s[t+1][n][1]=Math.floor(e[2]),s[t+1][n][2]=Math.floor(e[3]),s[t+1][n][3]=h))}}e[3*t+1][3*n+1]=new x,e[3*t+1][3*n+2]=new x,e[3*t+2][3*n+1]=new x,e[3*t+2][3*n+2]=new x,e[3*t+1][3*n+1].x=(-4*e[3*t][3*n].x+6*(e[3*t][3*n+1].x+e[3*t+1][3*n].x)+-2*(e[3*t][3*n+3].x+e[3*t+3][3*n].x)+3*(e[3*t+3][3*n+1].x+e[3*t+1][3*n+3].x)+-1*e[3*t+3][3*n+3].x)/9,e[3*t+1][3*n+2].x=(-4*e[3*t][3*n+3].x+6*(e[3*t][3*n+2].x+e[3*t+1][3*n+3].x)+-2*(e[3*t][3*n].x+e[3*t+3][3*n+3].x)+3*(e[3*t+3][3*n+2].x+e[3*t+1][3*n].x)+-1*e[3*t+3][3*n].x)/9,e[3*t+2][3*n+1].x=(-4*e[3*t+3][3*n].x+6*(e[3*t+3][3*n+1].x+e[3*t+2][3*n].x)+-2*(e[3*t+3][3*n+3].x+e[3*t][3*n].x)+3*(e[3*t][3*n+1].x+e[3*t+2][3*n+3].x)+-1*e[3*t][3*n+3].x)/9,e[3*t+2][3*n+2].x=(-4*e[3*t+3][3*n+3].x+6*(e[3*t+3][3*n+2].x+e[3*t+2][3*n+3].x)+-2*(e[3*t+3][3*n].x+e[3*t][3*n+3].x)+3*(e[3*t][3*n+2].x+e[3*t+2][3*n].x)+-1*e[3*t][3*n].x)/9,e[3*t+1][3*n+1].y=(-4*e[3*t][3*n].y+6*(e[3*t][3*n+1].y+e[3*t+1][3*n].y)+-2*(e[3*t][3*n+3].y+e[3*t+3][3*n].y)+3*(e[3*t+3][3*n+1].y+e[3*t+1][3*n+3].y)+-1*e[3*t+3][3*n+3].y)/9,e[3*t+1][3*n+2].y=(-4*e[3*t][3*n+3].y+6*(e[3*t][3*n+2].y+e[3*t+1][3*n+3].y)+-2*(e[3*t][3*n].y+e[3*t+3][3*n+3].y)+3*(e[3*t+3][3*n+2].y+e[3*t+1][3*n].y)+-1*e[3*t+3][3*n].y)/9,e[3*t+2][3*n+1].y=(-4*e[3*t+3][3*n].y+6*(e[3*t+3][3*n+1].y+e[3*t+2][3*n].y)+-2*(e[3*t+3][3*n+3].y+e[3*t][3*n].y)+3*(e[3*t][3*n+1].y+e[3*t+2][3*n+3].y)+-1*e[3*t][3*n+3].y)/9,e[3*t+2][3*n+2].y=(-4*e[3*t+3][3*n+3].y+6*(e[3*t+3][3*n+2].y+e[3*t+2][3*n+3].y)+-2*(e[3*t+3][3*n].y+e[3*t][3*n+3].y)+3*(e[3*t][3*n+2].y+e[3*t+2][3*n].y)+-1*e[3*t][3*n].y)/9}}this.nodes=e,this.colors=s}paintMesh(t,e){let s=(this.nodes.length-1)/3,r=(this.nodes[0].length-1)/3;if(&quot;bilinear&quot;===this.type||s&lt;2||r&lt;2){let n;for(let o=0;o&lt;s;++o)for(let s=0;s&lt;r;++s){let r=[];for(let t=3*o,e=3*o+4;t&lt;e;++t)r.push(this.nodes[t].slice(3*s,3*s+4));let i=[];i.push(this.colors[o].slice(s,s+2)),i.push(this.colors[o+1].slice(s,s+2)),(n=new m(r,i)).paint(t,e)}}else{let n,o,a,h,l,d,u;const x=s,g=r;s++,r++;let w=new Array(s);for(let t=0;t&lt;s;++t){w[t]=new Array(r);for(let e=0;e&lt;r;++e)w[t][e]=[],w[t][e][0]=this.nodes[3*t][3*e],w[t][e][1]=this.colors[t][e]}for(let t=0;t&lt;s;++t)for(let e=0;e&lt;r;++e)0!==t&amp;&amp;t!==x&amp;&amp;(n=i(w[t-1][e][0],w[t][e][0]),o=i(w[t+1][e][0],w[t][e][0]),w[t][e][2]=c(w[t-1][e][1],w[t][e][1],w[t+1][e][1],n,o)),0!==e&amp;&amp;e!==g&amp;&amp;(n=i(w[t][e-1][0],w[t][e][0]),o=i(w[t][e+1][0],w[t][e][0]),w[t][e][3]=c(w[t][e-1][1],w[t][e][1],w[t][e+1][1],n,o));for(let t=0;t&lt;r;++t){w[0][t][2]=[],w[x][t][2]=[];for(let e=0;e&lt;4;++e)n=i(w[1][t][0],w[0][t][0]),o=i(w[x][t][0],w[x-1][t][0]),w[0][t][2][e]=n&gt;0?2*(w[1][t][1][e]-w[0][t][1][e])/n-w[1][t][2][e]:0,w[x][t][2][e]=o&gt;0?2*(w[x][t][1][e]-w[x-1][t][1][e])/o-w[x-1][t][2][e]:0}for(let t=0;t&lt;s;++t){w[t][0][3]=[],w[t][g][3]=[];for(let e=0;e&lt;4;++e)n=i(w[t][1][0],w[t][0][0]),o=i(w[t][g][0],w[t][g-1][0]),w[t][0][3][e]=n&gt;0?2*(w[t][1][1][e]-w[t][0][1][e])/n-w[t][1][3][e]:0,w[t][g][3][e]=o&gt;0?2*(w[t][g][1][e]-w[t][g-1][1][e])/o-w[t][g-1][3][e]:0}for(let s=0;s&lt;x;++s)for(let r=0;r&lt;g;++r){let n=i(w[s][r][0],w[s+1][r][0]),o=i(w[s][r+1][0],w[s+1][r+1][0]),c=i(w[s][r][0],w[s][r+1][0]),x=i(w[s+1][r][0],w[s+1][r+1][0]),g=[[],[],[],[]];for(let t=0;t&lt;4;++t){(d=[])[0]=w[s][r][1][t],d[1]=w[s+1][r][1][t],d[2]=w[s][r+1][1][t],d[3]=w[s+1][r+1][1][t],d[4]=w[s][r][2][t]*n,d[5]=w[s+1][r][2][t]*n,d[6]=w[s][r+1][2][t]*o,d[7]=w[s+1][r+1][2][t]*o,d[8]=w[s][r][3][t]*c,d[9]=w[s+1][r][3][t]*x,d[10]=w[s][r+1][3][t]*c,d[11]=w[s+1][r+1][3][t]*x,d[12]=0,d[13]=0,d[14]=0,d[15]=0,u=f(d);for(let e=0;e&lt;9;++e){g[t][e]=[];for(let s=0;s&lt;9;++s)g[t][e][s]=p(u,e/8,s/8),g[t][e][s]&gt;255?g[t][e][s]=255:g[t][e][s]&lt;0&amp;&amp;(g[t][e][s]=0)}}h=[];for(let t=3*s,e=3*s+4;t&lt;e;++t)h.push(this.nodes[t].slice(3*r,3*r+4));l=y(h);for(let s=0;s&lt;8;++s)for(let r=0;r&lt;8;++r)(a=new m(l[s][r],[[[g[0][s][r],g[1][s][r],g[2][s][r],g[3][s][r]],[g[0][s][r+1],g[1][s][r+1],g[2][s][r+1],g[3][s][r+1]]],[[g[0][s+1][r],g[1][s+1][r],g[2][s+1][r],g[3][s+1][r]],[g[0][s+1][r+1],g[1][s+1][r+1],g[2][s+1][r+1],g[3][s+1][r+1]]]])).paint(t,e)}}}transform(t){if(t instanceof x)for(let e=0,s=this.nodes.length;e&lt;s;++e)for(let s=0,r=this.nodes[0].length;s&lt;r;++s)this.nodes[e][s]=this.nodes[e][s].add(t);else if(t instanceof g)for(let e=0,s=this.nodes.length;e&lt;s;++e)for(let s=0,r=this.nodes[0].length;s&lt;r;++s)this.nodes[e][s]=this.nodes[e][s].transform(t)}scale(t){for(let e=0,s=this.nodes.length;e&lt;s;++e)for(let s=0,r=this.nodes[0].length;s&lt;r;++s)this.nodes[e][s]=this.nodes[e][s].scale(t)}}document.querySelectorAll(&quot;rect,circle,ellipse,path,text&quot;).forEach((r,n)=&gt;{let o=r.getAttribute(&quot;id&quot;);o||(o=&quot;patchjs_shape&quot;+n,r.setAttribute(&quot;id&quot;,o));const i=r.style.fill.match(/^url\(\s*&quot;?\s*#([^\s&quot;]+)&quot;?\s*\)/),a=r.style.stroke.match(/^url\(\s*&quot;?\s*#([^\s&quot;]+)&quot;?\s*\)/);if(i&amp;&amp;i[1]){const a=document.getElementById(i[1]);if(a&amp;&amp;&quot;meshgradient&quot;===a.nodeName){const i=r.getBBox();let l=document.createElementNS(s,&quot;canvas&quot;);d(l,{width:i.width,height:i.height});const c=l.getContext(&quot;2d&quot;);let u=c.createImageData(i.width,i.height);const f=new b(a);&quot;objectBoundingBox&quot;===a.getAttribute(&quot;gradientUnits&quot;)&amp;&amp;f.scale(new x(i.width,i.height));const p=a.getAttribute(&quot;gradientTransform&quot;);null!=p&amp;&amp;f.transform(h(p)),&quot;userSpaceOnUse&quot;===a.getAttribute(&quot;gradientUnits&quot;)&amp;&amp;f.transform(new x(-i.x,-i.y)),f.paintMesh(u.data,l.width),c.putImageData(u,0,0);const y=document.createElementNS(t,&quot;image&quot;);d(y,{width:i.width,height:i.height,x:i.x,y:i.y});let g=l.toDataURL();y.setAttributeNS(e,&quot;xlink:href&quot;,g),r.parentNode.insertBefore(y,r),r.style.fill=&quot;none&quot;;const w=document.createElementNS(t,&quot;use&quot;);w.setAttributeNS(e,&quot;xlink:href&quot;,&quot;#&quot;+o);const m=&quot;patchjs_clip&quot;+n,M=document.createElementNS(t,&quot;clipPath&quot;);M.setAttribute(&quot;id&quot;,m),M.appendChild(w),r.parentElement.insertBefore(M,r),y.setAttribute(&quot;clip-path&quot;,&quot;url(#&quot;+m+&quot;)&quot;),u=null,l=null,g=null}}if(a&amp;&amp;a[1]){const o=document.getElementById(a[1]);if(o&amp;&amp;&quot;meshgradient&quot;===o.nodeName){const i=parseFloat(r.style.strokeWidth.slice(0,-2))*(parseFloat(r.style.strokeMiterlimit)||parseFloat(r.getAttribute(&quot;stroke-miterlimit&quot;))||1),a=r.getBBox(),l=Math.trunc(a.width+i),c=Math.trunc(a.height+i),u=Math.trunc(a.x-i/2),f=Math.trunc(a.y-i/2);let p=document.createElementNS(s,&quot;canvas&quot;);d(p,{width:l,height:c});const y=p.getContext(&quot;2d&quot;);let g=y.createImageData(l,c);const w=new b(o);&quot;objectBoundingBox&quot;===o.getAttribute(&quot;gradientUnits&quot;)&amp;&amp;w.scale(new x(l,c));const m=o.getAttribute(&quot;gradientTransform&quot;);null!=m&amp;&amp;w.transform(h(m)),&quot;userSpaceOnUse&quot;===o.getAttribute(&quot;gradientUnits&quot;)&amp;&amp;w.transform(new x(-u,-f)),w.paintMesh(g.data,p.width),y.putImageData(g,0,0);const M=document.createElementNS(t,&quot;image&quot;);d(M,{width:l,height:c,x:0,y:0});let S=p.toDataURL();M.setAttributeNS(e,&quot;xlink:href&quot;,S);const k=&quot;pattern_clip&quot;+n,A=document.createElementNS(t,&quot;pattern&quot;);d(A,{id:k,patternUnits:&quot;userSpaceOnUse&quot;,width:l,height:c,x:u,y:f}),A.appendChild(M),o.parentNode.appendChild(A),r.style.stroke=&quot;url(#&quot;+k+&quot;)&quot;,g=null,p=null,S=null}}})}();
</script>
</svg>
